<svg xmlns="http://www.w3.org/2000/svg" viewBox="0 0 400 400" width="400" height="400">
  <defs>
    <linearGradient id="dusk" x1="0" y1="0" x2="0" y2="1">
      <stop offset="0%" stop-color="#2d1840"/>
      <stop offset="50%" stop-color="#7a3a7e"/>
      <stop offset="100%" stop-color="#f4a8c1"/>
    </linearGradient>
  </defs>
  <rect width="400" height="400" fill="url(#dusk)"/>
  <path d="M 0 280 L 400 260 L 400 400 L 0 400 Z" fill="#2d1840" opacity="0.7"/>
  <path d="M 0 290 Q 100 270 200 290 T 400 290 L 400 400 L 0 400 Z" fill="#1a0c2a"/>
  <g transform="translate(260,140)">
    <path d="M 0 -50 Q 35 -25 25 0 Q 35 25 0 50 Q -35 25 -25 0 Q -35 -25 0 -50 Z" fill="#f4a8c1" opacity="0.95"/>
  </g>
  <g transform="translate(140,170)" fill="#fff5e1">
    <polygon points="0,-40 11,-12 40,-12 16,7 25,36 0,18 -25,36 -16,7 -40,-12 -11,-12"/>
  </g>
  <g fill="#fff5e1" opacity="0.7">
    <circle cx="80" cy="80" r="2"/>
    <circle cx="340" cy="200" r="1.5"/>
    <circle cx="60" cy="220" r="1.8"/>
    <circle cx="200" cy="60" r="2.2"/>
    <circle cx="320" cy="60" r="1.4"/>
  </g>
</svg>
