<svg xmlns="http://www.w3.org/2000/svg" viewBox="0 0 1200 320" width="1200" height="320">
  <defs>
    <linearGradient id="vbg" x1="0" y1="0" x2="0" y2="1">
      <stop offset="0%" stop-color="#1a0c2a"/>
      <stop offset="55%" stop-color="#7a3a7e"/>
      <stop offset="100%" stop-color="#f4a8c1"/>
    </linearGradient>
  </defs>
  <rect width="1200" height="320" fill="url(#vbg)"/>
  <path d="M 0 240 Q 200 220 400 235 T 800 230 T 1200 235 L 1200 320 L 0 320 Z" fill="#0d0517"/>
  <g transform="translate(1020,130)">
    <path d="M 0 -50 Q 38 -28 28 0 Q 38 28 0 50 Q -38 28 -28 0 Q -38 -28 0 -50 Z" fill="#f4a8c1"/>
  </g>
  <g transform="translate(900,90)" fill="#fff5e1">
    <polygon points="0,-22 6,-7 22,-7 9,4 14,20 0,10 -14,20 -9,4 -22,-7 -6,-7"/>
  </g>
  <g fill="#fff5e1" opacity="0.7">
    <circle cx="950" cy="200" r="1.6"/>
    <circle cx="1100" cy="60" r="1.8"/>
    <circle cx="760" cy="50" r="1.4"/>
    <circle cx="600" cy="120" r="1"/>
  </g>
  <g font-family="Georgia, 'Times New Roman', serif" fill="#fff5e1">
    <text x="80" y="170" font-size="92" font-weight="700" letter-spacing="4">Vespera</text>
    <text x="80" y="220" font-size="22" fill="#f4a8c1" letter-spacing="2">RENTAL PAYMENTS ON STELLAR</text>
  </g>
</svg>
